<svg width="10" height="17" viewBox="0 0 10 17" fill="none" xmlns="http://www.w3.org/2000/svg">
<path d="M7.62639 16.2071C8.01691 16.5976 8.65008 16.5976 9.0406 16.2071C9.43113 15.8166 9.43113 15.1834 9.0406 14.7929L7.62639 16.2071ZM1.3335 8.5L0.626389 7.79289C0.235865 8.18342 0.235865 8.81658 0.626389 9.20711L1.3335 8.5ZM9.0406 2.20711C9.43113 1.81658 9.43113 1.18342 9.0406 0.792893C8.65008 0.402369 8.01691 0.402369 7.62639 0.792893L9.0406 2.20711ZM9.0406 14.7929L2.0406 7.79289L0.626389 9.20711L7.62639 16.2071L9.0406 14.7929ZM2.0406 9.20711L9.0406 2.20711L7.62639 0.792893L0.626389 7.79289L2.0406 9.20711Z" fill="#FDFDFD"/>
</svg>
