<svg width="18" height="18" viewBox="0 0 18 18" fill="none" xmlns="http://www.w3.org/2000/svg">
<path d="M6.94721 9.35557C6.45324 9.10858 5.85256 9.30881 5.60557 9.80279C5.35858 10.2968 5.55881 10.8974 6.05279 11.1444L6.94721 9.35557ZM11.0528 13.6444C11.5468 13.8914 12.1474 13.6912 12.3944 13.1972C12.6414 12.7032 12.4412 12.1026 11.9472 11.8556L11.0528 13.6444ZM11.9472 6.14443C12.4412 5.89744 12.6414 5.29676 12.3944 4.80279C12.1474 4.30881 11.5468 4.10858 11.0528 4.35557L11.9472 6.14443ZM6.05279 6.85557C5.55881 7.10256 5.35858 7.70324 5.60557 8.19721C5.85256 8.69119 6.45324 8.89142 6.94721 8.64443L6.05279 6.85557ZM14 15.5C13.1716 15.5 12.5 14.8284 12.5 14H10.5C10.5 15.933 12.067 17.5 14 17.5V15.5ZM12.5 14C12.5 13.1716 13.1716 12.5 14 12.5V10.5C12.067 10.5 10.5 12.067 10.5 14H12.5ZM14 12.5C14.8284 12.5 15.5 13.1716 15.5 14H17.5C17.5 12.067 15.933 10.5 14 10.5V12.5ZM15.5 14C15.5 14.8284 14.8284 15.5 14 15.5V17.5C15.933 17.5 17.5 15.933 17.5 14H15.5ZM6.05279 11.1444L11.0528 13.6444L11.9472 11.8556L6.94721 9.35557L6.05279 11.1444ZM4 10.5C3.17157 10.5 2.5 9.82843 2.5 9H0.5C0.5 10.933 2.067 12.5 4 12.5V10.5ZM2.5 9C2.5 8.17157 3.17157 7.5 4 7.5V5.5C2.067 5.5 0.5 7.067 0.5 9H2.5ZM4 7.5C4.82843 7.5 5.5 8.17157 5.5 9H7.5C7.5 7.067 5.933 5.5 4 5.5V7.5ZM5.5 9C5.5 9.82843 4.82843 10.5 4 10.5V12.5C5.933 12.5 7.5 10.933 7.5 9H5.5ZM11.0528 4.35557L6.05279 6.85557L6.94721 8.64443L11.9472 6.14443L11.0528 4.35557ZM14 5.5C13.1716 5.5 12.5 4.82843 12.5 4H10.5C10.5 5.933 12.067 7.5 14 7.5V5.5ZM12.5 4C12.5 3.17157 13.1716 2.5 14 2.5V0.5C12.067 0.5 10.5 2.067 10.5 4H12.5ZM14 2.5C14.8284 2.5 15.5 3.17157 15.5 4H17.5C17.5 2.067 15.933 0.5 14 0.5V2.5ZM15.5 4C15.5 4.82843 14.8284 5.5 14 5.5V7.5C15.933 7.5 17.5 5.933 17.5 4H15.5Z" fill="#002A48"/>
</svg>
