<svg width="20" height="17" viewBox="0 0 20 17" fill="none" xmlns="http://www.w3.org/2000/svg">
<path d="M6.64826 16.0097C13.7292 16.0097 17.6033 10.1417 17.6033 5.05458C17.6033 4.88962 17.5997 4.72099 17.5923 4.55603C18.346 4.01101 18.9963 3.33594 19.5129 2.56253C18.811 2.8748 18.0658 3.07875 17.3027 3.1674C18.1062 2.68579 18.7078 1.9292 18.996 1.03789C18.2401 1.48585 17.4135 1.80184 16.5516 1.97232C15.9708 1.35525 15.203 0.946668 14.3667 0.809758C13.5305 0.672848 12.6724 0.815232 11.9252 1.2149C11.178 1.61456 10.5833 2.24924 10.2329 3.02082C9.88262 3.7924 9.79623 4.65789 9.98713 5.48349C8.45663 5.40669 6.95935 5.0091 5.59236 4.31651C4.22537 3.62392 3.01918 2.65179 2.052 1.46314C1.56043 2.31067 1.41 3.31357 1.6313 4.26802C1.8526 5.22247 2.42902 6.05685 3.24341 6.60158C2.63202 6.58217 2.03402 6.41756 1.49882 6.12135V6.16901C1.49827 7.05842 1.80575 7.92059 2.369 8.60894C2.93224 9.29728 3.71648 9.76934 4.58841 9.94485C4.02205 10.0998 3.42764 10.1224 2.85116 10.0108C3.0972 10.7757 3.57591 11.4447 4.22047 11.9245C4.86504 12.4042 5.6433 12.6708 6.44664 12.6869C5.0828 13.7582 3.39807 14.3393 1.66378 14.3366C1.35622 14.3361 1.04896 14.3172 0.743652 14.2801C2.5055 15.4104 4.555 16.0107 6.64826 16.0097Z" fill="#99A2A5"/>
</svg>
